<svg xmlns="http://www.w3.org/2000/svg" xmlns:xlink="http://www.w3.org/1999/xlink" width="500" zoomAndPan="magnify" viewBox="112 86 151 152" height="500" preserveAspectRatio="xMidYMid meet" version="1.0"><defs><g/><clipPath id="2555e42018"><path d="M 112.074219 86.742188 L 262.824219 86.742188 L 262.824219 238.242188 L 112.074219 238.242188 Z M 112.074219 86.742188 " clip-rule="nonzero"/></clipPath><clipPath id="074702d725"><path d="M 147.054688 122 L 227.945312 122 L 227.945312 202.886719 L 147.054688 202.886719 Z M 147.054688 122 " clip-rule="nonzero"/></clipPath><clipPath id="70b88ba6a8"><path d="M 187.5 122 C 165.164062 122 147.054688 140.105469 147.054688 162.445312 C 147.054688 184.78125 165.164062 202.886719 187.5 202.886719 C 209.835938 202.886719 227.945312 184.78125 227.945312 162.445312 C 227.945312 140.105469 209.835938 122 187.5 122 Z M 187.5 122 " clip-rule="nonzero"/></clipPath><clipPath id="0a1cb27adc"><path d="M 0.0546875 0 L 80.945312 0 L 80.945312 80.886719 L 0.0546875 80.886719 Z M 0.0546875 0 " clip-rule="nonzero"/></clipPath><clipPath id="e87ef5ce8a"><path d="M 40.5 0 C 18.164062 0 0.0546875 18.105469 0.0546875 40.445312 C 0.0546875 62.78125 18.164062 80.886719 40.5 80.886719 C 62.835938 80.886719 80.945312 62.78125 80.945312 40.445312 C 80.945312 18.105469 62.835938 0 40.5 0 Z M 40.5 0 " clip-rule="nonzero"/></clipPath><clipPath id="ffbdf70f9e"><rect x="0" width="81" y="0" height="81"/></clipPath><clipPath id="986223bdf7"><path d="M 147.054688 122 L 227.9375 122 L 227.9375 202.882812 L 147.054688 202.882812 Z M 147.054688 122 " clip-rule="nonzero"/></clipPath><clipPath id="d20dc7271e"><path d="M 187.496094 122 C 165.160156 122 147.054688 140.105469 147.054688 162.441406 C 147.054688 184.777344 165.160156 202.882812 187.496094 202.882812 C 209.832031 202.882812 227.9375 184.777344 227.9375 162.441406 C 227.9375 140.105469 209.832031 122 187.496094 122 Z M 187.496094 122 " clip-rule="nonzero"/></clipPath><clipPath id="fd6c82af5c"><path d="M 0.480469 0.160156 L 67.441406 0.160156 L 67.441406 31 L 0.480469 31 Z M 0.480469 0.160156 " clip-rule="nonzero"/></clipPath><clipPath id="5bef114656"><rect x="0" width="68" y="0" height="31"/></clipPath><clipPath id="4210da9158"><path d="M 12 30 L 53 30 L 53 44.320312 L 12 44.320312 Z M 12 30 " clip-rule="nonzero"/></clipPath><clipPath id="ade662b3dc"><rect x="0" width="41" y="0" height="15"/></clipPath><clipPath id="3012c6e062"><rect x="0" width="68" y="0" height="45"/></clipPath></defs><g clip-path="url(#2555e42018)"><path fill="#cc4e00" d="M 262.859375 156.617188 C 262.863281 156.5625 262.851562 156.511719 262.835938 156.460938 C 262.835938 156.457031 262.835938 156.453125 262.835938 156.449219 L 247.804688 116.96875 C 247.800781 116.964844 247.796875 116.960938 247.792969 116.957031 C 247.769531 116.898438 247.734375 116.84375 247.679688 116.800781 L 214.625 90.5 C 214.570312 90.460938 214.507812 90.429688 214.441406 90.417969 C 214.433594 90.417969 214.429688 90.417969 214.425781 90.417969 L 187.441406 86.746094 C 187.390625 86.738281 187.332031 86.742188 187.28125 86.757812 L 174.421875 90.414062 L 174.054688 90.414062 C 173.980469 90.414062 173.910156 90.433594 173.851562 90.46875 C 173.851562 90.46875 173.851562 90.46875 173.847656 90.46875 L 173.523438 90.667969 L 141.867188 99.664062 C 141.859375 99.667969 141.851562 99.675781 141.84375 99.679688 C 141.800781 99.695312 141.761719 99.71875 141.726562 99.75 C 141.710938 99.761719 141.699219 99.769531 141.683594 99.785156 C 141.679688 99.792969 141.667969 99.796875 141.664062 99.804688 L 113.941406 135.792969 C 113.933594 135.804688 113.933594 135.816406 113.925781 135.828125 C 113.914062 135.84375 113.902344 135.859375 113.894531 135.875 C 113.890625 135.886719 113.890625 135.898438 113.886719 135.910156 C 113.878906 135.929688 113.875 135.953125 113.871094 135.976562 C 113.871094 135.988281 113.863281 136 113.863281 136.011719 L 112.117188 167.664062 C 112.113281 167.691406 112.117188 167.71875 112.121094 167.746094 L 114.675781 183.753906 C 114.679688 183.777344 114.691406 183.792969 114.695312 183.816406 C 114.699219 183.828125 114.699219 183.84375 114.707031 183.855469 C 114.707031 183.859375 114.710938 183.859375 114.710938 183.863281 C 114.714844 183.867188 114.714844 183.875 114.714844 183.878906 L 127.621094 208.460938 C 127.644531 208.503906 127.671875 208.542969 127.710938 208.574219 L 142.847656 221.957031 C 142.871094 221.984375 142.898438 222.007812 142.925781 222.027344 L 160.429688 233.828125 C 160.480469 233.859375 160.535156 233.878906 160.589844 233.890625 L 188.050781 238.160156 L 188.054688 238.160156 C 188.054688 238.160156 188.058594 238.160156 188.058594 238.160156 C 188.058594 238.160156 188.058594 238.164062 188.0625 238.164062 C 188.082031 238.164062 188.101562 238.167969 188.121094 238.167969 C 188.121094 238.167969 188.121094 238.167969 188.125 238.167969 C 188.148438 238.167969 188.175781 238.164062 188.203125 238.160156 C 188.203125 238.160156 188.203125 238.160156 188.207031 238.15625 C 188.207031 238.15625 188.210938 238.15625 188.210938 238.15625 C 188.210938 238.15625 188.214844 238.15625 188.214844 238.15625 C 188.214844 238.15625 188.214844 238.15625 188.21875 238.15625 L 188.222656 238.152344 C 188.222656 238.152344 188.222656 238.152344 188.226562 238.152344 C 188.226562 238.152344 188.230469 238.152344 188.230469 238.152344 L 233.101562 225.035156 C 233.121094 225.03125 233.128906 225.011719 233.144531 225.007812 C 233.1875 224.988281 233.222656 224.960938 233.257812 224.929688 C 233.269531 224.914062 233.292969 224.910156 233.308594 224.894531 L 260.605469 188.886719 C 260.648438 188.828125 260.667969 188.761719 260.675781 188.695312 C 260.679688 188.6875 260.683594 188.683594 260.6875 188.675781 Z M 259.917969 188.335938 L 248.109375 191.320312 L 261.914062 158.898438 Z M 212.007812 183.742188 L 168.503906 168.429688 L 201.316406 144.796875 Z M 201.316406 143.523438 L 168.597656 122.117188 L 211.140625 109.945312 Z M 200.847656 144.160156 L 168.054688 167.78125 L 168.054688 122.703125 Z M 167.261719 167.917969 L 130.042969 149.648438 L 167.261719 122.746094 Z M 175.324219 211.722656 L 139.84375 191.835938 L 167.390625 169.28125 Z M 168.171875 169.152344 L 211.769531 184.496094 L 176.136719 211.773438 Z M 212.246094 185.125 L 214.546875 217.746094 L 176.851562 212.222656 Z M 212.753906 183.46875 L 202.082031 144.59375 L 238.378906 148.222656 Z M 238.886719 148.871094 L 246.933594 191.386719 L 213.265625 184.105469 Z M 247.582031 190.546875 L 239.621094 148.515625 L 261.941406 156.816406 Z M 238.941406 146.988281 L 212.632812 109.96875 L 246.945312 117.410156 Z M 238.277344 147.417969 L 202.058594 143.800781 L 211.871094 110.257812 Z M 168.175781 121.414062 L 174.339844 91.390625 L 210.628906 109.269531 Z M 167.359375 121.457031 L 139.523438 112.148438 L 173.484375 91.613281 Z M 166.800781 122.105469 L 129.921875 148.757812 L 138.867188 112.761719 Z M 129.054688 148.972656 L 114.832031 136.023438 L 137.867188 113.507812 Z M 138.234375 112.042969 L 117.996094 131.824219 L 141.054688 101.890625 Z M 128.804688 149.816406 L 115.429688 181.800781 L 114.667969 136.941406 Z M 129.171875 150.992188 L 138.597656 191.292969 L 115.59375 183.453125 Z M 129.851562 150.433594 L 166.929688 168.636719 L 139.382812 191.191406 Z M 174.839844 212.355469 L 143.476562 221.195312 L 139.640625 192.628906 Z M 175.65625 212.949219 L 187.34375 237.074219 L 144.441406 221.742188 Z M 188.269531 237.171875 L 176.546875 212.980469 L 213.957031 218.460938 Z M 215.316406 217.421875 L 213.023438 184.863281 L 246.546875 192.109375 Z M 246.414062 193.234375 L 232.78125 224.160156 L 215.769531 218.074219 Z M 247.71875 192.234375 L 259.296875 189.308594 L 234.714844 221.730469 Z M 239.578125 147.652344 L 247.5 118.390625 L 261.785156 155.917969 Z M 214.664062 91.546875 L 245.863281 116.367188 L 212.164062 109.058594 Z M 187.417969 87.539062 L 208.535156 90.414062 L 177.3125 90.414062 Z M 213.917969 91.203125 L 211.40625 108.769531 L 175.75 91.203125 Z M 139.234375 111.398438 L 142.296875 100.363281 L 170.957031 92.21875 Z M 112.90625 167.664062 L 114.046875 147 L 114.574219 178.117188 Z M 128.285156 208.027344 L 117.8125 188.078125 L 140.601562 218.921875 Z M 116.136719 184.476562 L 138.785156 192.191406 L 142.546875 220.222656 Z M 145.960938 223.125 L 184.058594 236.738281 L 160.796875 233.121094 Z M 215.039062 218.648438 L 231.714844 224.617188 L 190.1875 236.757812 Z M 215.039062 218.648438 " fill-opacity="1" fill-rule="nonzero"/></g><g clip-path="url(#074702d725)"><g clip-path="url(#70b88ba6a8)"><g transform="matrix(1, 0, 0, 1, 147, 122)"><g clip-path="url(#ffbdf70f9e)"><g clip-path="url(#0a1cb27adc)"><g clip-path="url(#e87ef5ce8a)"><path fill="#fafafa" d="M 0.0546875 0 L 80.945312 0 L 80.945312 80.886719 L 0.0546875 80.886719 Z M 0.0546875 0 " fill-opacity="1" fill-rule="nonzero"/></g></g></g></g></g></g><g clip-path="url(#986223bdf7)"><g clip-path="url(#d20dc7271e)"><path stroke-linecap="butt" transform="matrix(0.75, 0, 0, 0.75, 147.055572, 121.999158)" fill="none" stroke-linejoin="miter" d="M 53.920696 0.00112215 C 24.139446 0.00112215 -0.00117886 24.141747 -0.00117886 53.922997 C -0.00117886 83.704247 24.139446 107.844872 53.920696 107.844872 C 83.701946 107.844872 107.842571 83.704247 107.842571 53.922997 C 107.842571 24.141747 83.701946 0.00112215 53.920696 0.00112215 Z M 53.920696 0.00112215 " stroke="#cc4e00" stroke-width="2" stroke-opacity="1" stroke-miterlimit="4"/></g></g><g transform="matrix(1, 0, 0, 1, 156, 140)"><g clip-path="url(#3012c6e062)"><g clip-path="url(#fd6c82af5c)"><g><g clip-path="url(#5bef114656)"><g fill="#cc4e00" fill-opacity="1"><g transform="translate(0.837272, 24.938889)"><g><path d="M 1.71875 0 L 1.71875 -18.09375 L 6.71875 -18.09375 L 12.8125 -7.234375 L 12.8125 -18.09375 L 17.078125 -18.09375 L 17.078125 0 L 12.8125 0 L 6.875 -10.609375 L 5.984375 -10.609375 L 5.984375 0 Z M 1.71875 0 "/></g></g></g><g fill="#cc4e00" fill-opacity="1"><g transform="translate(24.544152, 24.938889)"><g><path d="M 1.71875 0 L 1.71875 -18.09375 L 6.3125 -18.09375 L 6.3125 -3.734375 L 14.609375 -3.734375 L 14.609375 0 Z M 1.71875 0 "/></g></g></g><g fill="#cc4e00" fill-opacity="1"><g transform="translate(44.422949, 24.938889)"><g><path d="M 1.8125 0 L 1.8125 -3.6875 L 11.25 -3.6875 L 12.109375 -4.546875 L 12.109375 -6.546875 L 11.25 -7.40625 L 3.828125 -7.40625 L 1.109375 -10.15625 L 1.109375 -15.359375 L 3.828125 -18.09375 L 15.65625 -18.09375 L 15.65625 -14.40625 L 6.484375 -14.40625 L 5.625 -13.546875 L 5.625 -11.953125 L 6.484375 -11.09375 L 13.890625 -11.09375 L 16.625 -8.375 L 16.625 -2.71875 L 13.890625 0 Z M 1.8125 0 "/></g></g></g></g></g></g><g clip-path="url(#4210da9158)"><g transform="matrix(1, 0, 0, 1, 12, 30)"><g clip-path="url(#ade662b3dc)"><g fill="#cc4e00" fill-opacity="1"><g transform="translate(0.96302, 12.016301)"><g><path d="M 2.359375 0 L 2.359375 -6.53125 L 0.0625 -6.53125 L 0.0625 -8.21875 L 6.734375 -8.21875 L 6.734375 -6.53125 L 4.4375 -6.53125 L 4.4375 0 Z M 2.359375 0 "/></g></g></g><g fill="#cc4e00" fill-opacity="1"><g transform="translate(9.981879, 12.016301)"><g><path d="M 0.78125 0 L 0.78125 -8.21875 L 7.03125 -8.21875 L 7.03125 -6.53125 L 2.859375 -6.53125 L 2.859375 -5.015625 L 6.609375 -5.015625 L 6.609375 -3.4375 L 2.859375 -3.4375 L 2.859375 -1.703125 L 7.03125 -1.703125 L 7.03125 0 Z M 0.78125 0 "/></g></g></g><g fill="#cc4e00" fill-opacity="1"><g transform="translate(19.792005, 12.016301)"><g><path d="M 1.796875 0 L 0.5625 -1.234375 L 0.5625 -6.984375 L 1.796875 -8.21875 L 6.03125 -8.21875 L 7.28125 -6.984375 L 7.28125 -5.328125 L 5.25 -5.328125 L 5.25 -6.25 L 4.84375 -6.640625 L 3.046875 -6.640625 L 2.640625 -6.25 L 2.640625 -1.96875 L 3.046875 -1.578125 L 4.90625 -1.578125 L 5.328125 -1.96875 L 5.328125 -2.90625 L 7.34375 -2.90625 L 7.34375 -1.234375 L 6.109375 0 Z M 1.796875 0 "/></g></g></g><g fill="#cc4e00" fill-opacity="1"><g transform="translate(29.490688, 12.016301)"><g><path d="M 0.78125 0 L 0.78125 -8.21875 L 2.859375 -8.21875 L 2.859375 -5.171875 L 5.671875 -5.171875 L 5.671875 -8.21875 L 7.75 -8.21875 L 7.75 0 L 5.671875 0 L 5.671875 -3.53125 L 2.859375 -3.53125 L 2.859375 0 Z M 0.78125 0 "/></g></g></g></g></g></g></g></g></svg>