<?xml version="1.0" encoding="UTF-8"?>
<svg width="1200pt" height="1200pt" version="1.1" viewBox="0 0 1200 1200" xmlns="http://www.w3.org/2000/svg" fill="#cc4e00">
 <path d="m967.08 850.08c10.312 0 18.609-8.2969 18.609-18.609v-68.625c119.77-31.688 208.31-141 208.31-270.61 0-154.31-125.63-279.94-279.94-279.94-39.844 0-77.859 8.3906-112.22 23.531-82.547-114.75-214.69-182.76-356.63-182.76-242.16 0-439.22 197.06-439.22 439.22s197.06 439.22 439.22 439.22c141.94 0 273.94-68.062 356.53-182.76 13.078 5.7656 26.625 10.453 40.547 14.156v185.06h-65.391c-12.703 0-24 7.5469-28.688 19.078-4.7812 11.531-2.2969 24.844 6.7031 33.938l136.92 136.92c5.7656 5.8594 13.547 9.1406 21.938 9.2344h0.14062c8.2969 0 16.078-3.2344 21.938-9.1406l137.29-137.21c8.7656-9 11.391-22.219 6.6094-33.703-4.7812-11.625-16.078-19.219-28.688-19.219h-65.391v-65.391c0-10.312-8.2969-18.609-18.609-18.609s-18.609 8.2969-18.609 18.609v71.531c0 17.156 13.922 31.078 31.078 31.078h56.766l-122.26 122.29-122.29-122.29h56.766c17.062 0 30.938-13.922 30.938-31.078v-183.94c11.297 1.4531 22.781 2.1562 34.453 2.1562 11.625 0 23.156-0.70312 34.453-2.1562v61.453c0.09375 10.172 8.3906 18.562 18.703 18.562zm-521.86 44.156c-221.68 0-402-180.37-402-402 0-221.76 180.32-402.1 402-402.1 128.16 0 247.45 60.609 323.29 163.08-18.469 11.297-35.531 24.609-50.859 39.703-63.609-86.859-163.69-138.24-272.39-138.24-85.453 0-167.06 32.062-229.55 90.141-62.297 57.703-100.22 136.08-106.92 220.45-0.84375 10.219 6.8438 19.219 17.062 20.062h1.4531c9.6094 0 17.766-7.4531 18.469-17.156 12.375-154.97 143.9-276.32 299.44-276.32 99.469 0 190.78 48.234 247.08 129.61-36.469 47.297-58.312 106.55-58.312 170.76 0 64.219 21.703 123.47 58.312 170.76-56.297 81.375-147.61 129.61-247.08 129.61-155.63 0-287.16-121.31-299.39-276.24-0.84375-10.219-9.7031-17.859-20.062-17.062-10.078 0.75-17.766 9.6094-16.922 19.922 6.7031 84.375 44.625 162.71 106.92 220.45 62.531 58.078 144.14 90.141 229.55 90.141 108.7 0 208.78-51.234 272.39-138.24 15.375 15.141 32.391 28.453 50.859 39.703-75.797 102.33-195.19 162.94-323.34 162.94zm225.94-402c0-133.92 108.94-242.76 242.86-242.76 133.92 0 242.76 108.94 242.76 242.76 0 133.78-108.94 242.76-242.76 242.76-133.87 0-242.86-108.94-242.86-242.76zm-315.71-68.766c0-42 31.453-77.297 73.078-85.453v-30.234c0-10.312 8.2969-18.609 18.609-18.609s18.609 8.2969 18.609 18.609v30.234c31.453 6.2344 57.703 27.844 68.297 57.609 3.4688 9.7031-1.5469 20.297-11.297 23.766-9.7031 3.4688-20.297-1.5469-23.766-11.297-7.4531-20.766-28.312-34.781-51.844-34.781-30 0-54.469 22.453-54.469 50.062s24.469 50.156 54.469 50.156h3.6094c1.9219 0 3.8438 0.375 5.625 0.84375 44.391 6 78.703 42.469 78.703 86.391 0 42-31.453 77.297-73.078 85.453v30.234c0 10.312-8.2969 18.609-18.609 18.609s-18.609-8.2969-18.609-18.609v-30.234c-31.453-6.2344-57.703-27.844-68.297-57.609-3.4688-9.7031 1.5469-20.297 11.297-23.766 9.7031-3.4688 20.297 1.5469 23.766 11.297 7.4531 20.766 28.312 34.781 51.844 34.781 30 0 54.469-22.453 54.469-50.062s-24.469-50.156-54.469-50.156h-3.6094c-1.9219 0-3.8438-0.375-5.625-0.84375-44.391-6-78.703-42.328-78.703-86.391zm643.31-40.922-137.39 237.98c-3.4688 6-9.7031 9.2344-16.078 9.2344-3.1406 0-6.375-0.84375-9.2344-2.5312-8.8594-5.1562-11.859-16.453-6.8438-25.453l137.39-237.94c5.1562-8.8594 16.453-11.859 25.453-6.8438 8.8594 5.2969 11.859 16.688 6.7031 25.547zm-102 27.984c0-32.062-26.156-58.219-58.219-58.219s-58.219 26.062-58.219 58.219 26.062 58.219 58.219 58.219c32.062-0.046875 58.219-26.203 58.219-58.219zm-79.219 0c0-11.625 9.4688-21 21-21 11.625 0 21.141 9.4688 21.141 21s-9.4688 21-21.141 21c-11.625 0-21-9.375-21-21zm171.98 105.23c-32.062 0-58.219 26.062-58.219 58.219s26.062 58.219 58.219 58.219 58.219-26.062 58.219-58.219c-0.046875-32.203-26.203-58.219-58.219-58.219zm0 79.172c-11.625 0-21-9.4688-21-21s9.4688-21 21-21c11.625 0 21.141 9.4688 21.141 21-0.046875 11.531-9.5156 21-21.141 21z"/>
</svg>
