<?xml version="1.0" encoding="UTF-8"?>
<svg width="1200pt" height="1200pt" version="1.1" viewBox="0 0 1200 1200" xmlns="http://www.w3.org/2000/svg">
 <path d="m821.63 525.61c-7.6875-13.359-18.188-23.859-30.469-30.938s-26.625-10.875-42.141-10.875-29.859 3.7969-42.141 10.875-22.734 17.625-30.469 30.984c-92.203 159.74-184.45 319.45-276.66 479.21-7.6875 13.359-11.531 27.656-11.531 41.953-0.046875 14.203 3.8438 28.5 11.578 41.906 7.6875 13.406 18.188 23.906 30.469 30.984 12.281 7.0781 26.625 10.875 42.094 10.875h553.36c15.516 0 29.812-3.7969 42.094-10.875 12.281-7.0781 22.734-17.625 30.469-30.984 7.6875-13.312 11.531-27.609 11.531-41.906 0-14.25-3.8438-28.594-11.531-41.906l-138.32-239.68c-46.125-79.875-92.203-159.74-138.32-239.58zm86.953 102.84v-371.11l-11.859 11.766-22.266 67.641c-1.3594 4.2188-4.8281 7.125-8.8594 8.0156l-68.766 15.047-67.125 66.234c-4.6875 4.6406-12.281 4.5469-16.922-0.14062-3.375-3.4219-4.2656-8.4375-2.6719-12.656l34.219-89.625c0.84375-2.2031 2.25-3.9844 3.9844-5.2969l62.859-47.625 25.453-63.047c0.84375-2.0625 2.1562-3.75 3.7969-5.0156l68.109-55.547v-77.531h-319.55v261.37c0 6.6094-5.3906 12-12 12-3.1406 0-6.0469-1.2188-8.1562-3.2344l-69.469-52.734-70.453 53.484c-5.25 3.9844-12.75 2.9531-16.734-2.2969-1.6406-2.1562-2.4375-4.6875-2.4375-7.2188l-0.09375-261.37h-319.55v143.11l138.52 74.953c7.3125 3.9375 7.7812 11.906 3.4688 18.281l-38.719 46.078 87.188 87.188c4.6875 4.6875 4.6875 12.281 0 16.969l-44.859 50.625 47.484 117.61c2.4375 6.1406-0.51562 13.125-6.6562 15.562-4.3594 1.7344-9.1875 0.70312-12.469-2.2031l-140.53-119.81c-4.0781-3.4688-5.2031-9.0938-3.2344-13.781l28.031-65.766-58.219-45.703v495.32h349.45l216.05-374.21c9.8438-17.062 23.344-30.562 39.281-39.75 15.984-9.2344 34.406-14.156 54.047-14.156s38.062 4.9688 54.047 14.156 29.438 22.688 39.281 39.75l66.234 114.75zm-482.81 283.45h-347.58c-6.6094 0-12-5.3906-12-12v-531.98c0.046876-2.5781 0.84375-5.2031 2.5781-7.4062 4.0781-5.2031 11.625-6.0938 16.828-2.0156l84.844 66.609c4.1719 3.2812 5.7656 9.0469 3.6094 14.109l-28.172 66.141 96.984 82.688-31.969-79.219c-1.5938-4.0781-0.9375-8.8594 2.1562-12.375l42.75-48.281-87-87c-4.3125-4.3594-4.6875-11.391-0.70313-16.172l36.422-43.359-131.21-70.969c-4.1719-1.875-7.0781-6.0938-7.0781-10.922v-162.24c0-6.6094 5.3906-12 12-12h842.44c6.6094 0 12 5.3906 12 12v95.156c-0.046875 3.4688-1.5469 6.9375-4.4531 9.2812l-70.406 57.422-25.406 62.906c-0.75 2.1094-2.1094 4.0312-4.0312 5.4844l-62.766 47.531-13.312 34.875 29.812-29.391c1.6406-1.8281 3.7969-3.1406 6.375-3.7031l65.438-14.297 21-63.844c0.5625-1.7344 1.5469-3.4219 2.9531-4.7812l33.703-33.469c2.2031-2.5312 5.4375-4.125 9.0469-4.125 6.6094 0 12 5.3906 12 12v441.52l186.37 322.82c9.8906 17.109 14.859 35.484 14.859 53.859s-4.9688 36.797-14.859 53.906c-9.8438 17.016-23.344 30.516-39.281 39.75-15.984 9.2344-34.406 14.156-54 14.156h-553.36c-19.688 0-38.062-4.9219-54.047-14.156-15.938-9.2344-29.391-22.688-39.234-39.75-9.8438-17.016-14.812-35.438-14.812-53.906-0.046875-18.375 4.875-36.75 14.766-53.906zm364.74-374.58 280.22 485.44c4.4062 7.5938 6.6094 15.797 6.6094 23.953 0 8.2031-2.2031 16.406-6.6094 23.953-4.3594 7.5469-10.312 13.5-17.438 17.625s-15.328 6.3281-24 6.3281h-560.48c-8.6719 0-16.875-2.2031-24.047-6.3281-7.0312-4.0781-13.078-10.078-17.438-17.672s-6.6094-15.75-6.6094-23.906 2.2031-16.312 6.6094-23.906l280.26-485.44c4.3594-7.5469 10.406-13.547 17.438-17.625 7.125-4.125 15.328-6.3281 24.047-6.3281 8.6719 0 16.875 2.2031 24 6.3281 7.0781 4.125 13.078 10.125 17.438 17.625zm119.44 254.68-140.16-242.68c-2.2031-3.8906-5.2031-6.8906-8.6719-8.9062-3.4688-1.9688-7.5938-3.0469-12.047-3.0469-4.5 0-8.625 1.0781-12.047 3.0469-3.5156 2.0156-6.5156 5.0625-8.7188 8.8594l-280.26 485.39c-2.2031 3.7969-3.2812 7.9219-3.2812 12s1.125 8.2031 3.2812 12c2.2031 3.7969 5.2031 6.7969 8.7188 8.8594 3.4219 1.9688 7.5469 3.0469 12.047 3.0469h560.48c4.5 0 8.5781-1.0781 12-3.0469 3.4688-2.0156 6.4688-5.0625 8.7188-8.9062 2.2031-3.7969 3.2812-7.875 3.2812-11.953 0-4.0312-1.125-8.1562-3.2812-11.953l-140.11-242.72zm-160.87 157.64c12.281 0 23.484 5.0156 31.5 13.031 8.0625 8.0625 13.031 19.219 13.031 31.5s-4.9688 23.438-13.031 31.5c-8.0156 8.0156-19.219 13.031-31.5 13.031s-23.438-5.0156-31.5-13.031c-8.0625-8.0625-13.031-19.219-13.031-31.5 0-12.234 4.9688-23.391 13.031-31.453 8.1094-8.1094 19.266-13.125 31.5-13.125zm14.531 30c-3.7031-3.7031-8.8594-6-14.531-6-5.7188 0-10.828 2.2969-14.531 5.9531-3.75 3.75-6.0469 8.8594-6.0469 14.578 0 5.6719 2.2969 10.828 6.0469 14.531 3.7031 3.7031 8.8594 6 14.531 6s10.828-2.2969 14.531-6 6.0469-8.8594 6.0469-14.531-2.2969-10.828-6.0469-14.531zm4.9219-77.297 20.156-193.31c0.46875-4.8281 0.046875-9.375-1.3125-13.5-1.3594-4.1719-3.7031-8.1094-6.9375-11.672-3.2344-3.6094-6.9375-6.3281-10.875-8.1094-3.8906-1.7344-8.3438-2.625-13.266-2.625h-14.438c-4.9219 0-9.375 0.89062-13.266 2.625-3.9844 1.7344-7.6406 4.5-10.875 8.1094-3.2344 3.5625-5.5781 7.5469-6.8906 11.672-1.3594 4.1719-1.7812 8.7188-1.3125 13.547l20.156 193.31c0.28125 2.625 1.5 4.9688 3.2812 6.6094 1.8281 1.5938 4.2656 2.5781 6.9375 2.5781h18.375c2.6719 0 5.1094-0.98438 6.9375-2.625 1.8281-1.5938 3.0469-3.9375 3.3281-6.5625zm43.969-190.87-20.156 193.31c-0.89062 8.7188-5.0156 16.406-11.109 21.891-6.0938 5.5312-14.203 8.8594-22.969 8.8594h-18.375c-8.7656 0-16.828-3.3281-22.969-8.8125-6.0938-5.5312-10.219-13.219-11.109-21.938l-20.156-193.31c-0.84375-8.1562-0.046875-15.984 2.3438-23.344 2.3906-7.4062 6.375-14.203 11.906-20.344 5.4844-6.0469 11.859-10.734 18.938-13.922 7.1719-3.1875 14.906-4.8281 23.016-4.8281h14.438c8.1562 0 15.891 1.6406 23.016 4.8281 7.0781 3.1406 13.453 7.8281 18.938 13.922 5.5312 6.1406 9.5156 12.938 11.906 20.297 2.3438 7.3594 3.1406 15.234 2.3438 23.344zm-247.36-641.95h-131.29v237.28l58.453-44.344c4.1719-3.1875 10.078-3.3281 14.438 0l58.453 44.344v-237.28z"/>
</svg>
