<?xml version="1.0" encoding="UTF-8"?>
<svg width="1200pt" height="1200pt" version="1.1" viewBox="0 0 1200 1200" xmlns="http://www.w3.org/2000/svg" fill="#cc4e00">
 <path d="m697.03 682.55c-26.25 0-54.656-5.0625-84.984-17.156-6-2.3906-8.9531-9.2344-6.5625-15.234 2.4375-6 9.2344-8.9531 15.234-6.5156 127.13 50.812 217.5-38.156 250.45-78.75 88.359-108.89 189.28-327.19 100.17-466.97-32.531 58.312-100.83 108.94-172.69 162.24-65.297 48.422-132.79 98.484-166.74 152.44-5.0156 7.9688-9.6562 16.078-13.781 24.047-2.9531 5.7656-10.031 8.0156-15.75 5.0625-5.7656-2.9531-8.0156-10.031-5.0625-15.797 4.4062-8.5781 9.3281-17.25 14.766-25.828 36.281-57.703 105.61-109.12 172.6-158.81 73.312-54.375 149.11-110.58 173.95-170.81 1.5938-3.8438 5.1094-6.5625 9.2344-7.125s8.25 1.125 10.828 4.4062c51.75 66.375 64.125 158.68 35.859 266.86-21.938 83.812-68.719 175.4-125.16 244.97-28.453 35.062-96 102.94-192.37 102.94z" fill-rule="evenodd"/>
 <path d="m616.36 666.24c-2.9062 0-5.8594-1.0781-8.1094-3.2344-4.6406-4.5-4.8281-11.906-0.32812-16.547 231.32-241.5 349.03-433.78 349.82-571.5 0.046874-6.4688 5.2969-11.672 11.719-11.672h0.09375c6.4688 0.046875 11.672 5.2969 11.625 11.766-0.42188 72.562-30.891 159.05-90.609 257.06-59.016 96.844-148.45 208.08-265.74 330.56-2.2969 2.3906-5.3906 3.6094-8.4844 3.6094z" fill-rule="evenodd"/>
 <path d="m838.74 401.58c-4.125 0-8.1094-2.1562-10.266-6.0469-26.906-48.469-42.609-97.312-46.641-145.22-0.51562-6.4688 4.2656-12.141 10.688-12.656 6.4688-0.51562 12.141 4.2656 12.656 10.688 3.75 44.578 18.469 90.281 43.781 135.79 3.1406 5.6719 1.0781 12.797-4.5469 15.938-1.8281 0.98438-3.75 1.4531-5.6719 1.4531z" fill-rule="evenodd"/>
 <path d="m899.39 411.52c-22.641 0-44.953-3.4688-64.688-10.594-6.0938-2.2031-9.2344-8.9062-7.0781-15 2.2031-6.0938 8.9062-9.2344 15-7.0312 42.047 15.188 99.75 11.109 140.29-9.8438 5.7188-2.9531 12.797-0.75 15.797 5.0156s0.75 12.797-5.0156 15.797c-27.656 14.297-61.359 21.703-94.312 21.703z" fill-rule="evenodd"/>
 <path d="m871.6 519c-36.75 0-75.188-6.8438-111.14-20.203-6.0469-2.25-9.1406-9-6.8906-15.047 2.2969-6.0469 9-9.1406 15.094-6.8906 52.5 19.547 110.44 24.094 158.86 12.469 6.2812-1.5 12.609 2.3438 14.156 8.6719 1.5 6.2812-2.3906 12.609-8.6719 14.109-19.359 4.6406-40.125 6.9375-61.359 6.9375z" fill-rule="evenodd"/>
 <path d="m764.58 499.5c-0.60938 0-1.1719-0.046875-1.7812-0.14062-34.969-5.2969-65.062-93-78.281-172.31-1.0312-6.375 3.2812-12.422 9.6562-13.5s12.422 3.2344 13.453 9.6562c6.8906 41.484 17.625 80.672 30.141 110.34 14.203 33.609 25.406 42.188 28.5 42.656 6.4219 0.98438 10.828 6.9375 9.8438 13.359-0.89062 5.8125-5.9062 9.9844-11.578 9.9844z" fill-rule="evenodd"/>
 <path d="m808.74 623.58c-39.188 0-79.734-12.516-124.74-38.156-5.625-3.1875-7.5938-10.359-4.4062-15.984 3.2344-5.625 10.359-7.5938 15.984-4.4062 55.312 31.5 102.47 41.391 148.5 31.125 6.3281-1.4062 12.562 2.5781 13.969 8.9062s-2.5781 12.562-8.9062 13.969c-13.406 3-26.859 4.5-40.453 4.5z" fill-rule="evenodd"/>
 <path d="m616.36 654.52h0.046875zm0 0h0.046875zm-396.84-527.53c-78.047 146.21 39.422 356.06 135.89 457.82 35.719 37.641 131.48 118.45 252.98 60.562 4.5-7.0312 18.094-30.469 23.156-64.734 8.1094-55.125-8.4844-111-49.359-166.08-37.969-51.188-109.17-95.906-177.98-139.13-75.797-47.578-147.74-92.812-184.69-148.45zm302.86 562.36c-88.219 0-154.6-57.422-183.98-88.406-61.641-65.016-115.36-152.72-143.72-234.61-36.562-105.7-31.359-198.66 15.094-268.82 2.2969-3.4688 6.2812-5.4844 10.453-5.25 4.1719 0.23438 7.875 2.6719 9.75 6.4219 29.438 58.172 109.36 108.38 186.61 156.89 70.641 44.391 143.72 90.281 184.36 145.03 56.109 75.609 60.047 142.22 53.531 184.78-7.1719 46.547-27.891 74.953-28.781 76.172-1.125 1.5-2.5781 2.7188-4.2656 3.5625-35.25 17.344-68.484 24.281-99.141 24.281z" fill-rule="evenodd"/>
 <path d="m616.36 666.24c-2.7656 0-5.5781-0.98438-7.8281-3-126.42-113.06-224.16-217.03-290.44-309.05-67.078-93.094-104.16-176.95-110.2-249.28-0.51562-6.4688 4.2656-12.094 10.734-12.656s12.094 4.2656 12.656 10.688c11.438 137.26 143.63 319.87 392.9 542.81 4.8281 4.3125 5.25 11.719 0.9375 16.547-2.2969 2.5781-5.5312 3.8906-8.7188 3.8906z" fill-rule="evenodd"/>
 <path d="m374.29 419.53c-1.6406 0-3.2812-0.32812-4.875-1.0781-5.8594-2.7188-8.4375-9.6562-5.7656-15.516 21.703-47.344 32.859-94.031 33.188-138.74 0.046875-6.4219 5.25-11.625 11.672-11.625h0.09375c6.4688 0.046876 11.672 5.3438 11.625 11.812-0.32812 48.047-12.234 97.969-35.297 148.36-1.9688 4.3125-6.2344 6.8438-10.688 6.8438z" fill-rule="evenodd"/>
 <path d="m298.22 434.76c-27.375 0-54.797-5.0156-78.516-15-6-2.5312-8.7656-9.4219-6.2344-15.375s9.375-8.7656 15.375-6.2344c42.047 17.812 99.891 17.391 140.63-0.98438 5.9062-2.6719 12.844-0.046875 15.516 5.8594 2.6719 5.9062 0.046874 12.844-5.8594 15.516-23.953 10.828-52.406 16.219-80.906 16.219z" fill-rule="evenodd"/>
 <path d="m329.39 539.95c-13.594 0-26.859-0.98438-39.656-3.0469-6.375-1.0312-10.781-7.0312-9.75-13.406s7.0781-10.734 13.406-9.7031c49.219 7.8281 106.55-1.125 157.45-24.656 5.8594-2.7188 12.844-0.14062 15.562 5.7188s0.14062 12.844-5.7188 15.562c-41.859 19.359-87.984 29.578-131.29 29.578z" fill-rule="evenodd"/>
 <path d="m455.76 511.45c-5.3438 0-10.172-3.6562-11.391-9.0938-1.4531-6.3281 2.4844-12.609 8.7656-14.062 3.0938-0.70312 13.547-10.125 25.125-44.719 10.219-30.562 17.859-70.453 21.516-112.31 0.5625-6.4688 6.2344-11.25 12.703-10.641 6.4688 0.5625 11.203 6.2344 10.641 12.703-7.0312 80.062-30.281 169.82-64.734 177.79-0.89062 0.1875-1.7812 0.32812-2.625 0.32812z" fill-rule="evenodd"/>
 <path d="m408 639.1c-8.8594 0-17.672-0.65625-26.531-1.9219-6.375-0.9375-10.828-6.8438-9.9375-13.266 0.9375-6.4219 6.8438-10.875 13.266-9.9375 46.688 6.6562 92.953-6.8438 145.64-42.516 5.3906-3.6094 12.656-2.2031 16.266 3.1406 3.6562 5.3438 2.2031 12.656-3.1406 16.266-48.094 32.531-91.828 48.188-135.56 48.188z" fill-rule="evenodd"/>
 <path d="m537.05 592.92c-3.5156 0-6.9844-1.5469-9.2812-4.5469-3.9844-5.1094-3.0469-12.469 2.1094-16.453 39-30.141 61.125-78 65.672-142.26 0.46875-6.4688 6.0469-11.344 12.516-10.875s11.297 6.0469 10.875 12.516c-5.0625 71.203-30.188 124.78-74.719 159.19-2.1562 1.6406-4.6406 2.4375-7.1719 2.4375z" fill-rule="evenodd"/>
 <path d="m600 808.82c-63.094 0-114.42-51.328-114.42-114.38 0-6.8906 0.60938-13.781 1.8281-20.484 1.1719-6.375 7.2656-10.594 13.641-9.4219s10.594 7.2656 9.4688 13.641c-0.98438 5.3438-1.4531 10.828-1.4531 16.312 0 50.156 40.781 90.938 90.984 90.938 50.156 0 90.938-40.828 90.938-90.938 0-7.125-0.79688-14.203-2.4375-21-1.5-6.2812 2.3906-12.609 8.6719-14.109s12.609 2.3906 14.109 8.7188c2.0156 8.625 3.0469 17.484 3.0469 26.438 0 63.094-51.328 114.38-114.38 114.38z" fill-rule="evenodd"/>
 <path d="m637.55 946.97h-75.047c-6.1406 0-11.25-4.7344-11.719-10.875l-4.3594-61.969c-12.328-3.6562-24.234-8.625-35.578-14.766l-46.922 40.781c-4.6406 4.0312-11.625 3.7969-15.984-0.5625l-53.062-53.109c-4.3594-4.3594-4.5938-11.344-0.5625-15.984l40.734-46.922c-6.1406-11.344-11.109-23.25-14.766-35.578l-61.969-4.3594c-6.1406-0.42188-10.875-5.5312-10.875-11.672v-75.094c0-6.1406 4.7344-11.25 10.875-11.672l65.484-4.5938c6.4688-0.46875 12.047 4.4062 12.516 10.875s-4.4062 12.047-10.875 12.516l-54.609 3.8438v53.203l59.391 4.1719c5.0625 0.375 9.3281 3.9375 10.547 8.8594 3.8906 15.797 10.172 30.891 18.609 44.859 2.625 4.3594 2.1094 9.8906-1.2188 13.734l-39.047 44.953 37.641 37.641 44.953-39.047c3.8438-3.3281 9.375-3.7969 13.734-1.1719 13.969 8.4375 29.062 14.672 44.859 18.609 4.9219 1.2188 8.5312 5.4844 8.9062 10.547l4.1719 59.391h53.203l4.1719-59.391c0.32812-5.0625 3.9375-9.3281 8.8594-10.547 15.797-3.9375 30.891-10.172 44.859-18.609 4.3594-2.625 9.8906-2.1562 13.734 1.1719l44.953 39.047 37.641-37.641-39.047-44.953c-3.3281-3.8438-3.7969-9.375-1.1719-13.734 8.4375-13.969 14.672-29.062 18.562-44.859 1.2188-4.9219 5.4844-8.5312 10.594-8.8594l59.391-4.1719v-53.203l-50.719-3.5625c-6.4688-0.46875-11.344-6.0469-10.875-12.516 0.42188-6.4688 6.0469-11.344 12.516-10.875l61.594 4.3125c6.1406 0.42188 10.922 5.5312 10.922 11.672v75.094c0 6.1406-4.7812 11.25-10.922 11.672l-61.969 4.3594c-3.7031 12.328-8.625 24.234-14.766 35.578l40.781 46.922c4.0312 4.6406 3.7969 11.625-0.5625 15.984l-53.062 53.062c-4.3594 4.3594-11.344 4.5938-15.984 0.5625l-46.922-40.734c-11.344 6.1406-23.25 11.062-35.578 14.766l-4.3594 61.969c-0.42188 6.1406-5.5312 10.875-11.672 10.875z" fill-rule="evenodd"/>
 <path d="m667.13 1136.8h-134.21c-6.1406 0-11.25-4.7812-11.719-10.922l-8.25-117.23c-25.641-7.0781-50.297-17.297-73.5-30.469l-88.781 77.109c-4.6406 4.0312-11.625 3.7969-15.984-0.5625l-94.922-94.922c-4.3594-4.3594-4.5938-11.344-0.5625-15.984l77.109-88.781c-13.172-23.203-23.391-47.859-30.516-73.547l-117.23-8.25c-6.1406-0.42188-10.922-5.5312-10.922-11.672v-134.21c0-6.1406 4.7812-11.25 10.922-11.672l117.28-8.25c5.1094-18.562 11.953-36.75 20.297-54.094 2.8125-5.8125 9.7969-8.2969 15.656-5.4844s8.2969 9.7969 5.4844 15.656c-8.9062 18.516-15.938 37.969-20.859 57.844-1.2188 4.9219-5.4844 8.5312-10.547 8.8594l-114.75 8.0625v112.36l114.75 8.0625c5.0625 0.375 9.3281 3.9375 10.547 8.8594 7.2188 29.109 18.797 56.953 34.312 82.734 2.625 4.3594 2.1562 9.8906-1.1719 13.734l-75.469 86.859 79.453 79.453 86.859-75.469c3.8438-3.3281 9.375-3.7969 13.734-1.1719 25.828 15.562 53.625 27.094 82.734 34.312 4.9219 1.2188 8.4844 5.4844 8.8594 10.547l8.0625 114.75h112.36l8.0625-114.75c0.32812-5.0625 3.9375-9.3281 8.8594-10.547 29.109-7.2188 56.953-18.797 82.734-34.312 4.3594-2.625 9.8906-2.1562 13.734 1.1719l86.859 75.469 79.453-79.453-75.469-86.859c-3.3281-3.8438-3.7969-9.375-1.1719-13.734 15.516-25.828 27.094-53.625 34.312-82.734 1.2188-4.9219 5.4844-8.5312 10.547-8.8594l114.75-8.0625v-112.36l-114.7-8.0625c-5.0625-0.375-9.3281-3.9375-10.547-8.8594-4.4062-17.719-10.453-35.109-18-51.75-2.6719-5.9062-0.09375-12.844 5.8125-15.516 5.9062-2.6719 12.797-0.046876 15.516 5.8125 6.9375 15.328 12.75 31.266 17.25 47.531l117.28 8.25c6.1406 0.42187 10.875 5.5312 10.875 11.672v134.21c0 6.1406-4.7812 11.25-10.875 11.672l-117.28 8.25c-7.125 25.641-17.344 50.297-30.516 73.5l77.109 88.781c4.0312 4.6406 3.7969 11.625-0.5625 15.984l-94.875 94.922c-4.3594 4.3594-11.344 4.5938-15.984 0.5625l-88.781-77.109c-23.203 13.172-47.859 23.391-73.547 30.469l-8.25 117.23c-0.42188 6.1406-5.5312 10.922-11.672 10.922z" fill-rule="evenodd"/>
</svg>
