<?xml version="1.0" encoding="UTF-8"?>
<svg width="1200pt" height="1200pt" version="1.1" viewBox="0 0 1200 1200" xmlns="http://www.w3.org/2000/svg" fill="#cc4e00">
 <path d="m979.92 415.22 24.469-19.031c-9.375-14.625-5.6719-34.031 8.3906-44.203l20.906-16.219c6.9844-5.7656 16.031-8.4375 25.031-7.2656 9 1.125 17.109 5.9531 22.453 13.266l52.078 67.125v0.046875c10.969 14.25 8.3438 34.641-5.8594 45.703l-22.875 17.766v-0.046875c-13.359 10.312-32.391 8.7188-43.875-3.6562l-23.625 18.328c69.75 113.67 75.234 255.47 14.531 374.21-60.703 118.78-178.82 197.34-311.86 207.42-132.98 10.078-261.61-49.781-339.52-158.06-47.672 9.6562-97.172-0.89062-136.74-29.203h-187.08c-9.0469 0-16.359-7.3125-16.359-16.359 0-9.0469 7.3125-16.359 16.359-16.359h152.48c-4.7344-5.9062-9.0938-12.094-13.031-18.562h-111.7c-9.0469 0-16.359-7.3594-16.359-16.406 0-9 7.3125-16.359 16.359-16.359h96.141c-2.1562-6.0938-3.9375-12.281-5.3906-18.562h-62.016c-4.4062 0.09375-8.6719-1.5469-11.859-4.6406-3.1406-3.0938-4.9219-7.3125-4.9219-11.719 0-4.4531 1.7812-8.6719 4.9219-11.766 3.1875-3.0469 7.4531-4.7344 11.859-4.5938h57.609l0.28125-18.609h-32.625c-4.4062 0.09375-8.6719-1.5469-11.859-4.6406-3.1406-3.0938-4.9219-7.3125-4.9219-11.719 0-4.4531 1.7812-8.6719 4.9219-11.766 3.1875-3.0469 7.4531-4.7344 11.859-4.5938h37.969c9.0938-34.547 28.547-65.438 55.734-88.594s60.797-37.453 96.328-40.922c21.609-64.031 59.766-121.18 110.53-165.71 50.812-44.531 112.5-74.859 178.78-87.891v-53.016c-20.578-3-35.812-20.625-35.859-41.438v-45.328c0-23.062 18.703-41.766 41.766-41.812h135c23.062 0.046875 41.766 18.75 41.812 41.812v45.375c-0.046875 20.766-15.328 38.391-35.906 41.391v53.062c74.016 14.438 142.03 50.438 195.61 103.5zm-614.68 232.78c25.453 0 49.781 10.641 67.078 29.344s25.969 43.781 24 69.188c-0.42188 4.3594 0.9375 8.7188 3.75 12.094 2.8594 3.375 6.9375 5.4375 11.297 5.7656 4.4062 0.32812 8.7188-1.125 12-4.0312 3.3281-2.9062 5.2969-7.0312 5.5312-11.438 2.6719-34.453-9.1406-68.484-32.578-93.844-23.484-25.406-56.438-39.844-91.031-39.844-4.4062-0.09375-8.6719 1.5469-11.859 4.6406-3.1406 3.0938-4.9219 7.3125-4.9219 11.719s1.7812 8.6719 4.9219 11.719c3.1875 3.0938 7.4531 4.7812 11.859 4.6406zm0 182.68c-25.5 0-49.781-10.641-67.078-29.391-17.297-18.703-26.016-43.781-24-69.141 0.65625-9.0469-6.0938-16.875-15.094-17.531s-16.828 6.0938-17.484 15.094c-2.7188 34.5 9.1406 68.484 32.625 93.844 23.438 25.406 56.438 39.797 91.031 39.797 9.0469 0 16.359-7.3125 16.359-16.359s-7.3125-16.359-16.359-16.359zm-31.875-123.89-32.766 6.7969-0.046875 0.046874c-5.8125 1.2188-10.547 5.5312-12.234 11.25-1.7344 5.6719-0.23438 11.906 3.9375 16.172l108.66 110.11v-0.046874c5.4375 5.5781 14.109 6.4688 20.625 2.2031 6.4688-4.3125 9.0469-12.609 6.0938-19.828l-28.781-70.219 30.984-7.0312h-0.046875c5.9062-1.1719 10.688-5.5312 12.422-11.297 1.7344-5.7656 0.14062-12.047-4.125-16.266l-101.81-100.78-0.046875-0.046876c-5.2969-5.8125-14.016-6.9844-20.672-2.8594-6.7031 4.1719-9.4688 12.516-6.5625 19.828zm34.406-1.8281 3.0938 7.9219c1.7344 4.5 1.4062 9.5156-0.89062 13.734s-6.3281 7.2188-11.016 8.2031l-22.406 4.6406 29.531 29.906-5.5781-14.203v0.046876c-0.9375-4.2188-0.1875-8.6719 2.1094-12.328 2.3438-3.6562 6-6.2344 10.219-7.1719l21.094-4.7812-26.203-25.922zm65.531 195.47h-0.046875c63.516 82.594 160.45 132.56 264.52 136.4 104.06 3.7969 204.42-38.953 273.79-116.62 69.328-77.672 100.5-182.21 84.984-285.19-15.562-102.98-76.172-193.69-165.37-247.45-89.156-53.719-197.68-64.969-295.97-30.609-98.297 34.359-176.21 110.72-212.48 208.31 23.812 2.3906 46.922 9.6562 67.828 21.375 34.078-88.031 110.3-152.86 202.64-172.36 92.297-19.5 188.26 9 255 75.703 54.328 54.328 83.859 128.72 81.609 205.55-2.25 76.828-36.094 149.29-93.562 200.34s-133.4 76.172-210 69.375c-76.547-6.7969-146.9-44.859-194.48-105.23-16.547 17.344-36.422 31.078-58.5 40.406zm45-294.56c32.297 27.375 53.578 65.531 59.859 107.44 6.3281 41.859-2.7656 84.609-25.594 120.28 4.0781 5.5312 8.3906 10.875 12.891 16.031l21.609-21.656v-0.046875c6.375-6.375 16.734-6.375 23.156 0 6.375 6.375 6.375 16.734 0 23.156l-21.609 21.609c40.641 35.672 91.922 56.906 145.87 60.375v-30.562c0-9.0469 7.3594-16.359 16.359-16.359 9.0469 0 16.406 7.3125 16.406 16.359v30.609c53.953-3.5156 105.19-24.797 145.82-60.422l-21.609-21.609h0.046875c-6.1875-6.4219-6.0469-16.594 0.23438-22.875 6.2812-6.3281 16.453-6.4219 22.875-0.28125l21.609 21.609c35.672-40.641 56.906-91.922 60.422-145.87h-30.609c-4.4062 0.14062-8.6719-1.5469-11.859-4.6406-3.1406-3.0469-4.9219-7.3125-4.9219-11.719s1.7812-8.625 4.9219-11.719c3.1875-3.0938 7.4531-4.7812 11.859-4.6406h30.609c-3.5156-53.953-24.797-105.23-60.422-145.87l-21.609 21.609c-6.375 6.375-16.734 6.375-23.156 0-6.375-6.375-6.375-16.734 0-23.109l21.609-21.609c-40.641-35.672-91.922-56.906-145.87-60.422v30.562c0 9.0469-7.3594 16.359-16.406 16.359-9 0-16.359-7.3125-16.359-16.359v-30.562c-53.953 3.4688-105.23 24.703-145.87 60.375l21.609 21.609c3.1406 3.0469 4.9688 7.2188 5.0156 11.625s-1.6406 8.6719-4.7812 11.766c-3.0938 3.0938-7.3594 4.8281-11.766 4.7812s-8.5781-1.875-11.625-5.0625l-21.609-21.609v0.046875c-20.766 23.672-36.75 51.094-47.156 80.812zm-12.562 32.906c-40.641-40.641-101.81-52.828-154.92-30.797-53.109 21.984-87.75 73.828-87.75 131.34 0 57.469 34.641 109.31 87.75 131.34 53.109 21.984 114.28 9.8438 154.92-30.844 55.5-55.5 55.5-145.5 0-201.05zm377.02 66.938-79.406-21.281c-0.84375-15.328-8.3438-29.531-20.531-38.859-12.188-9.3281-27.844-12.891-42.844-9.7031l-56.953-98.672c-2.1094-3.8906-5.6719-6.7031-9.8906-7.9219s-8.7656-0.65625-12.562 1.5469c-3.8438 2.2031-6.6094 5.8125-7.6875 10.078-1.0781 4.2656-0.42188 8.7656 1.875 12.516l57 98.719c-9.7969 10.922-14.578 25.406-13.219 39.984 1.3125 14.578 8.7188 27.938 20.297 36.844 11.625 8.9531 26.438 12.609 40.875 10.172 14.438-2.4844 27.188-10.828 35.203-23.109l79.406 21.281c4.2656 1.2656 8.8125 0.79687 12.703-1.3594 3.8438-2.1562 6.7031-5.8125 7.8281-10.078 1.125-4.3125 0.46875-8.8594-1.7812-12.656-2.2969-3.7969-6.0469-6.4688-10.359-7.5zm-117.84-32.484c-5.6719-5.7188-14.25-7.4062-21.656-4.3125-7.4062 3.0469-12.281 10.312-12.281 18.328 0 8.0156 4.875 15.281 12.281 18.375 7.4062 3.0469 15.984 1.3594 21.656-4.3125 7.7344-7.7812 7.7344-20.344 0-28.078zm-54.703-414.19v47.766-0.046875c27-2.8594 54.281-2.8594 81.328 0v-47.766zm117.23-41.812v-45.375c-0.046875-5.0156-4.0781-9.0469-9.0938-9.0938h-135c-4.9688 0.046875-9.0469 4.0781-9.0469 9.0938v45.375c0 4.9688 4.0781 9.0469 9.0469 9.0469h135c5.0156 0 9.0469-4.0781 9.0938-9.0469zm231.28 242.76 21.844-16.922-16.266-20.953-22.125 17.109c5.7188 6.75 11.25 13.641 16.5 20.766zm65.859-13.406 22.781-17.672-52.781-68.062-22.781 17.672z" fill-rule="evenodd"/>
</svg>
